<?xml version="1.0" encoding="utf-8"?>
<svg version="1.1" id="Layer_1" xmlns="http://www.w3.org/2000/svg" xmlns:xlink="http://www.w3.org/1999/xlink" x="0px" y="0px"
	 viewBox="0 0 168.3 193.8" style="enable-background:new 0 0 168.3 193.8;" xml:space="preserve">
<style type="text/css">
	.st0{fill:#00E599;}
	.st1{fill-rule:evenodd;clip-rule:evenodd;fill:#00E599;}
</style>
<circle class="st0" cx="84.15" cy="96.9" r="84.15"/>
<path class="st1" d="M105.5,55c5.8,5.8,9.1,14.5,9.1,23.5s-3.3,17.7-9.1,23.5c-5.8,5.8-14.5,9.1-23.5,9.1s-17.7-3.3-23.5-9.1
	c-5.8-5.8-9.1-14.5-9.1-23.5s3.3-17.7,9.1-23.5c5.8-5.8,14.5-9.1,23.5-9.1S99.7,49.2,105.5,55z"/>
<path class="st1" d="M84.15,102.9l12.5-12.5c1.2-1.2,1.2-3.1,0-4.3l-12.5-12.5c-1.2-1.2-3.1-1.2-4.3,0l-12.5,12.5
	c-1.2,1.2-1.2,3.1,0,4.3l12.5,12.5C81.1,104.2,82.9,104.2,84.15,102.9z"/>
</svg>
